<svg xmlns="http://www.w3.org/2000/svg" version="1.1" xmlns:xlink="http://www.w3.org/1999/xlink" xmlns:svgjs="http://svgjs.dev/svgjs" width="100%" height="100" viewBox="0 0 1000 600"><rect width="1000" height="600" x="0" y="0" fill="transparent"/><g><circle r="166.66666666666666" cx="303.3542124430338" cy="325.5764432065622" fill="#fcedda" transform="matrix(0.9144944136057284,0,0,0.9144944136057284,0,2.26215288533119)"/><path d="M316.86146432004944 322.16185959678614L368.684591468122 400.57644557302433L343.30183531396403 400.57644557302433L303.05203626951345 336.9382497865281L261.71440481845605 400.57644557302433L238.02383240790854 400.57644557302433L290.8139216951872 322.2827298641869L242.79820797023828 250.57644372869038L267.66726548794315 250.57644372869038L304.74422001312394 307.2948167064935L341.60965157035344 250.57644372869038L365.5117469488523 250.57644372869038L316.86146432004944 322.16185959678614Z " fill="#ee4e34" transform="matrix(0.9144944136057284,0,0,0.9144944136057284,0,2.26215288533119)"/><path d="M668.5599458331578 324.5776399501709L668.5599458331578 324.5776399501709Q668.5599458331578 335.2812779174126 666.7114066856119 344.2258221797315Q664.892682685607 353.2001815895916 661.8515376364186 360.53470788469315Q658.8103925872301 367.8692341797946 654.8747931118098 373.5937425076787Q650.9391936363894 379.28843568802176 646.5265518003122 383.37311090114747L646.5265518003122 383.37311090114747Q641.5176070134136 387.7857527372248 635.4651320625777 390.70763719624904Q629.4424722592829 393.6593368028142 622.7042489150027 395.3886153601959Q615.9362104231813 397.1178939175776 608.4227932428333 397.8334574585631Q600.9391912100265 398.57883614708965 592.9785468165627 398.57883614708965L592.9785468165627 398.57883614708965L553.3542157344897 398.57883614708965L553.3542157344897 250.5764437532521L595.483019210012 250.5764437532521Q603.026251537901 250.5764437532521 610.4800384231668 251.35163758931975Q617.9338253084326 252.15664657292845 625.0000152756645 254.2437069008029Q632.0662052428964 256.3307672286773 638.5062771117662 259.9980303762281Q644.9761641281768 263.6652935237788 650.4025209806504 269.53887758936827L650.4025209806504 269.53887758936827Q659.4365106855925 280.0338095238225 663.9982282593751 294.22581975336857Q668.5599458331578 308.4476451304557 668.5599458331578 324.5776399501709ZM646.6458123904764 325.3230186386975L646.6458123904764 325.3230186386975Q646.6458123904764 321.11908283540765 646.1091397347373 315.45420480260555Q645.6022822265392 309.78932676980355 644.1413399970271 303.82629726159087Q642.650582619974 297.83345260583724 639.9970344888193 291.9896836877889Q637.3136712101236 286.1160996221994 633.1097354068337 281.40530631071147L633.1097354068337 281.40530631071147Q626.5205878002588 274.16022545823307 617.4567829477755 271.38741673691425Q608.3929780952923 268.6146080155953 595.8109858329636 268.6146080155953L595.8109858329636 268.6146080155953L573.807406947659 268.6146080155953L573.807406947659 380.65993247491076L591.5176045870506 380.65993247491076Q597.2719280624758 380.65993247491076 602.7877303575725 380.03381437654843Q608.273717505128 379.4076962781861 613.1932168494035 378.09582978637934Q618.14253134122 376.7839632945726 622.4955428822152 374.667087819157Q626.8187392756694 372.58002749128264 630.1878509478096 369.6581430322584L630.1878509478096 369.6581430322584Q635.1073502920849 365.1560557535579 638.2975710789786 359.4911777207559Q641.5176070134136 353.8262996879539 643.3363310134183 347.8036398846591Q645.1848701609644 341.7809800813644 645.9004337019497 335.93721116331596Q646.6458123904764 330.1232573928087 646.6458123904764 325.3230186386975ZM701.0286415053756 315.45420480260555L695.2743180299503 302.2460944419146Q699.4782538332403 299.4136554255135 704.3381228824336 297.11788906485174Q709.227807079168 294.82212270418984 714.4156427513129 293.09284414680815Q719.6034784234579 291.36356558942657 724.8509443906851 290.4094808681125Q730.0685952103711 289.4553961467984 735.0179097021876 289.4553961467984L735.0179097021876 289.4553961467984Q742.5611420300766 289.4553961467984 749.2993653743569 291.39338073696763Q756.0674038661782 293.3313653271367 761.1657940957 297.47567083534443Q766.2343691776807 301.61997634355225 769.1860687842459 308.119678507504Q772.1079532432701 314.6193806714558 772.1079532432701 323.83226126164436L772.1079532432701 323.83226126164436L772.1079532432701 367.0344100486449Q772.1079532432701 374.1602303109589 772.4359198662219 379.9145537863841Q772.7340713416324 385.69869240935043 773.2707439973716 389.8728130650992L773.2707439973716 389.8728130650992Q773.7776015055697 394.79231240937463 774.5229801940962 398.57883614708965L774.5229801940962 398.57883614708965L756.8127825547048 398.57883614708965Q756.484815931753 396.78992729462584 756.2164796038835 391.98968854051475Q755.977958423555 387.1596346388625 755.7692523907675 381.16678998310874L755.7692523907675 381.16678998310874Q752.3106952760043 387.04037404869825 748.2260200628785 390.76726749133115Q744.1115297022118 394.49416093396405 739.7287030136756 396.70048185200267Q735.3160611775982 398.9068027700414 730.6947133087334 399.7416269011911Q726.1031805874097 400.57645103234086 721.6010933087092 400.57645103234086L721.6010933087092 400.57645103234086Q713.7298943578685 400.57645103234086 707.3196376365399 398.42976040938436Q700.9391960627524 396.28306978642775 696.4967390791339 392.19839457330215Q692.0244669479745 388.0839042126354 689.6094399971483 382.3295807372102Q687.1944130463223 376.57525726178505 687.1944130463223 369.3301764093068L687.1944130463223 369.3301764093068Q687.1944130463223 365.8716192945434 687.999422029931 361.9956501142052Q688.7746158659986 358.119680933867 690.5635247184624 354.3331571961519Q692.3524335709262 350.57644860597804 695.2743180299503 347.11789149121466Q698.2260176365156 343.6593343764514 702.5193988824287 340.9163408026735L702.5193988824287 340.9163408026735Q707.1109316037525 337.9944563436493 712.6863641939312 336.3546232288909Q718.231981636569 334.7446052616734 724.1651959972406 333.9694114256058Q730.0685952103711 333.16440244199714 736.0614398661248 333.01532670429185Q742.0244693743374 332.86625096658645 747.5700868169752 332.86625096658645L747.5700868169752 332.86625096658645L753.2349648497772 332.86625096658645L753.2349648497772 325.1143126059101Q753.2349648497772 319.33017398294385 751.7740226202651 315.39457450752343Q750.3130803907529 311.4887901796442 747.6893474071394 309.1035783763591Q745.0656144235259 306.7481817206151 741.6070573087625 305.70465155667785Q738.1485001939992 304.6611213927407 734.272531013661 304.6611213927407L734.272531013661 304.6611213927407Q729.9791497677479 304.6611213927407 725.357801898883 305.64502126159573Q720.7364540300183 306.6587362779919 716.353627341482 308.2389390976683Q711.9409855054047 309.78932676980355 708.0053860299844 311.6974962124316Q704.069786554564 313.57585050751857 701.0286415053756 315.45420480260555L701.0286415053756 315.45420480260555ZM746.8545232759897 376.57525726178505L746.8545232759897 376.57525726178505Q748.8521381612409 374.2496757535822 750.0447440628834 371.41723673718116Q751.237349964526 368.61461286832116 751.9230983579704 365.03679516339366Q752.6088467514148 361.45897745846605 752.8771830792844 357.07615076992977Q753.145519407154 352.6635089338524 753.145519407154 347.11789149121466L753.145519407154 347.11789149121466L750.1043743579655 347.11789149121466Q742.8592935054871 347.11789149121466 735.1669854398929 347.62474899941276Q727.4448622267576 348.1614216551519 721.0047903578879 350.3677425731905Q714.5647184890182 352.57406349122925 710.4204129808104 357.1357810650119Q706.2761074726027 361.66768349125346 706.2761074726027 369.6581430322584L706.2761074726027 369.6581430322584Q706.2761074726027 372.58002749128264 707.2301921939168 375.35283621260146Q708.1842769152307 378.1256449339204 710.211706948023 380.331965851959Q712.2689521283564 382.53828676999774 715.3399123250858 383.9097835568866Q718.4406876693565 385.2812803437755 722.8533295054337 385.2812803437755L722.8533295054337 385.2812803437755Q730.3965618333228 385.2812803437755 736.7770034071103 383.0749594257369Q743.1872601284389 380.86863850769817 746.8545232759897 376.57525726178505ZM842.4418862926382 385.2812803437755L842.4418862926382 385.2812803437755Q845.3935858992033 385.2812803437755 848.8819581615078 384.8340531306595Q852.4001455713533 384.4166410650847 854.8151725221794 383.9097835568866L854.8151725221794 383.9097835568866L854.8151725221794 398.37013011430224Q851.5653214402034 399.204954245452 846.8843432762566 399.8907026388964Q842.2331802598507 400.57645103234086 837.5223869483627 400.57645103234086L837.5223869483627 400.57645103234086Q831.1121302270342 400.57645103234086 825.9242945548892 399.2645845405341Q820.7364588827442 397.9527180487273 817.1288260302756 394.70286696675146Q813.5211931778069 391.4530158847756 811.5832085876378 385.9372135896789Q809.6452239974686 380.45122644212324 809.6452239974686 372.1626154257077L809.6452239974686 372.1626154257077L809.6452239974686 306.7481817206151L793.1872625548018 306.7481817206151L793.1872625548018 291.125044409098L810.1520815056667 291.125044409098L813.6106386204301 265.57346296640685L829.4424819647346 262.1149058516436L829.4424819647346 291.125044409098L854.3977604566045 291.125044409098L854.3977604566045 306.7481817206151L829.4424819647346 306.7481817206151L829.4424819647346 369.8668490650458Q829.4424819647346 372.90799411423427 829.9195243253916 375.7404331306353Q830.3965666860486 378.57287214703626 831.7978786204785 380.65993247491076Q833.2290057024496 382.74699280278514 835.7334780958989 383.9992289995098Q838.2379504893482 385.2812803437755 842.4418862926382 385.2812803437755ZM883.3184535714357 315.45420480260555L877.5641300960106 302.2460944419146Q881.7382507517593 299.4136554255135 886.6279349484937 297.11788906485174Q891.487803997687 294.82212270418984 896.675639669832 293.09284414680815Q901.8634753419769 291.36356558942657 907.1109413092042 290.4094808681125Q912.3584072764313 289.4553961467984 917.2779066207067 289.4553961467984L917.2779066207067 289.4553961467984Q924.8211389485957 289.4553961467984 931.589177440417 291.39338073696763Q938.3572159322384 293.3313653271367 943.425791014219 297.47567083534443Q948.5241812437408 301.61997634355225 951.446065702765 308.119678507504Q954.3977653093303 314.6193806714558 954.3977653093303 323.83226126164436L954.3977653093303 323.83226126164436L954.3977653093303 367.0344100486449Q954.3977653093303 374.1602303109589 954.6959167847409 379.9145537863841Q955.0238834076927 385.69869240935043 955.5307409158906 389.8728130650992L955.5307409158906 389.8728130650992Q956.0674135716299 394.79231240937463 956.8127922601564 398.57883614708965L956.8127922601564 398.57883614708965L939.0727794732238 398.57883614708965Q938.7746279978132 396.78992729462584 938.5062916699437 391.98968854051475Q938.2379553420741 387.1596346388625 938.0292493092866 381.16678998310874L938.0292493092866 381.16678998310874Q934.5706921945233 387.04037404869825 930.4860169813976 390.76726749133115Q926.401341768272 394.49416093396405 921.9886999321947 396.70048185200267Q917.6058732436584 398.9068027700414 912.9845253747935 399.7416269011911Q908.3631775059288 400.57645103234086 903.8610902272283 400.57645103234086L903.8610902272283 400.57645103234086Q896.0197064239287 400.57645103234086 889.6094497026 398.42976040938436Q883.2290081288126 396.28306978642775 878.7567359976531 392.19839457330215Q874.3142790140346 388.0839042126354 871.8992520632085 382.3295807372102Q869.4842251123823 376.57525726178505 869.4842251123823 369.3301764093068L869.4842251123823 369.3301764093068Q869.4842251123823 365.8716192945434 870.25941894845 361.9956501142052Q871.0644279320587 358.119680933867 872.8533367845225 354.3331571961519Q874.6124304894454 350.57644860597804 877.5641300960106 347.11789149121466Q880.4860145550347 343.6593343764514 884.7793958009479 340.9163408026735L884.7793958009479 340.9163408026735Q889.4007436698126 337.9944563436493 894.9463611124504 336.3546232288909Q900.5217937026291 334.7446052616734 906.4251929157597 333.9694114256058Q912.3584072764313 333.16440244199714 918.3214367846439 333.01532670429185Q924.3142814403975 332.86625096658645 929.8598988830354 332.86625096658645L929.8598988830354 332.86625096658645L935.5247769158374 332.86625096658645L935.5247769158374 325.1143126059101Q935.5247769158374 319.33017398294385 934.0638346863252 315.39457450752343Q932.6028924568132 311.4887901796442 929.9791594731996 309.1035783763591Q927.3554264895861 306.7481817206151 923.8968693748227 305.70465155667785Q920.4383122600594 304.6611213927407 916.5623430797211 304.6611213927407L916.5623430797211 304.6611213927407Q912.2391466862671 304.6611213927407 907.6476139649433 305.64502126159573Q903.0262660960784 306.6587362779919 898.6136242600012 308.2389390976683Q894.2307975714648 309.78932676980355 890.2951980960445 311.6974962124316Q886.3595986206242 313.57585050751857 883.3184535714357 315.45420480260555L883.3184535714357 315.45420480260555ZM929.1145201945088 376.57525726178505L929.1145201945088 376.57525726178505Q931.1121350797599 374.2496757535822 932.3345561289436 371.41723673718116Q933.5271620305862 368.61461286832116 934.2129104240305 365.03679516339366Q934.898658817475 361.45897745846605 935.1669951453446 357.07615076992977Q935.405516325673 352.6635089338524 935.405516325673 347.11789149121466L935.405516325673 347.11789149121466L932.3643712764847 347.11789149121466Q925.1491055715474 347.11789149121466 917.426982358412 347.62474899941276Q909.7346742928177 348.1614216551519 903.294602423948 350.3677425731905Q896.8545305550784 352.57406349122925 892.7102250468706 357.1357810650119Q888.5659195386629 361.66768349125346 888.5659195386629 369.6581430322584L888.5659195386629 369.6581430322584Q888.5659195386629 372.58002749128264 889.5200042599769 375.35283621260146Q890.4442738337498 378.1256449339204 892.5015190140832 380.331965851959Q894.5289490468755 382.53828676999774 897.629724391146 383.9097835568866Q900.7304997354166 385.2812803437755 905.1133264239529 385.2812803437755L905.1133264239529 385.2812803437755Q912.6863738993829 385.2812803437755 919.0668154731704 383.0749594257369Q925.4472570469579 380.86863850769817 929.1145201945088 376.57525726178505Z " fill="teal" transform="matrix(0.9144944136057284,0,0,0.9144944136057284,0,2.26215288533119)"/></g></svg>